<svg xmlns="http://www.w3.org/2000/svg" height="884" width="2800.1"><g stroke="#cd00f9" fill="none" color="#000" font-weight="400" font-family="sans-serif"><path d="M1992 781l48 103h4.4l3.6-1.8-47.2-101.2h586.5l96 103h5.5l2.9-2.8-93.5-100.2H2800v-8h-209.2l-78-83H2800v-8h-294.6l-66.5-71H2800v-8h-368.6l-57.2-62H2800v-8h-433.2l-49.6-53h443.5l39.3 28.3v-9.8l-25.5-18.5h25.5v-8h-36.8l-64.8-46H2800v-8h-112.8l-56.8-40H2800v-8h-180.7l-49.9-36H2800v-8h-241.9l-44.1-32h286v-8h-297.2l-39-27H2800v-9.9l-43.5-23.1h43.5v-8h-58.4l-41.1-22h99.5v-8h-114.5l-36.6-20H2800v-8h-166l-32.6-17H2800v-8h-213.6l-29.1-16H2800v-8h-257.6l-25.9-14h258.4l25.2 11.1v-8.7l-4.9-2.4h4.9v-8h-23.6l-28.9-12h52.5v-8H2729l-25.7-11h96.8v-8h-115.5l-22.8-10H2800v-8h-157l-20.2-8H2800v-8h-196l-17.9-8h213.1l.7.1V0H0v8.1L.7 8h213.1l-17.9 8H0v8h177.3l-20.2 8H0v8h138.4l-22.8 10H0v8h96.8L71.1 69H0v8h52.5L23.6 89H0v8h4.9L0 99.4v8.7L25.2 97h258.4l-25.9 14H0v8h242.7l-29.1 16H0v8h198.7l-32.6 17H0v8h151.1l-36.6 20H0v8h99.5l-41.1 22H0v8h43.5L0 249.1v9.9h336.2l-39 27H0v8h286l-44.1 32H0v8h230.7l-49.9 36H0v8h169.5l-56.8 40H0v8h101.5l-64.8 46H0v8h25.5L0 498.5v9.8L39.3 480h443.5l-49.6 53H0v8h425.8l-57.2 62H0v8h361.1l-66.5 71H0v8h287.1l-78 83H0v8h201.7l-93.5 100.2 2.9 2.8h5.5l96-103h586.5l-47.2 101.2 3.6 1.8h4.4l48-103h588v103h8V781zm-588-8v-83h545.3l39 83zm0-240v-53h447.4l24.8 53zm476 8l28.6 62H1404v-62zm-476-69v-46h422.1l21.6 46zm0-146v-32h360.6l14.7 32zm379.1 8l16.6 36H1404v-36zM1404 286v-27h343.9l13 27zm0-35v-25h328.6l11.6 25zm0-33v-22h314.6l10.3 22zM1154.1 40H1396v10h-246.4zm-13.4 10h-245l9.1-10h240.4zm509.7 0H1404V40h241.9zm4.3-10h240.4l9.1 10h-245zM1404 135v-16h278.8l7.3 16zm289.8 8l8.2 17h-298v-17zM1404 111V97h268.6l6.5 14zm0-22V77h259.1l5.8 12zm0-20V58h250.2l5.1 11zm-8-11v11h-255.3l5.1-11zm0 19v12h-264.8l5.8-12zm0 20v14h-275.1l6.5-14zm0 22v16h-286.1l7.3-16zm0 24v17h-298l8.2-17zm0 25v20h-310.8l9.1-20zm8 0h301.7l9.1 20H1404zm323.4 28h313.1l20.5 22h-323.4zm-3.7-8l-9.2-20h300.2l18.3 20zm-12.9-28l-8.2-17H1991l16.3 17zm-11.9-25l-7.3-16h277.3l14.5 16zm-11-24l-6.5-14h267.1l13 14zm-10.2-22l-5.8-12h257.6l11.6 12zm-9.5-20l-5.1-11h248.7l10.3 11zm254.5-11h246.2l15.4 11H1933zm-7.5-8l-9.1-10H2144l13.7 10zm-16.6-18l-8.1-8h230.2l12.1 8zm-11 0H1651l-4-8h232.6zm-245.5 0H1404v-8h234.1zM1396 32h-238.1l4-8H1396zm-247 0H912.4l8.1-8h232.6zm-247.6 0H667.2l12.1-8h230.2zm-7.5 8l-9.1 10H642.3L656 40zm-16.6 18L867 69H615.7l15.4-11zm11 0H1137l-5.1 11H878zm239.8 19l-5.8 12H859l11.6-12zm-9.5 20l-6.5 14H838.5l13-14zm-10.2 22l-7.3 16H816.5l14.5-16zm-11 24l-8.2 17H792.7l16.3-17zm-11.9 25l-9.1 20H767l18.3-20zm-12.9 28l-10.3 22H738.9l20.5-22zm8.8 0H1396v22h-324.9zm314.6 30v25h-340.1l11.6-25zm0 33v27h-356.9l13-27zm0 35v32h-375.3l14.7-32zm0 40v36h-395.7l16.6-36zm0 44v40H977.6l18.9-40zm8 0h399.4l18.9 40H1404zm430.9 48h420.6l43.2 46h-442.2zm-3.7-8l-18.9-40h398l37.8 40zm-22.7-48l-16.6-36h377.6l33.3 36zm-20.3-44l-14.7-32h359.2l29.4 32zm-18.5-40l-13-27h342.4l26 27zm-16.7-35l-11.6-25h327.1l23.1 25zm326.5-25h324.6l34.7 25h-336.2zm-7.5-8l-20.5-22h310.6l30.8 22zm-28-30l-18.3-20h297.8l27.5 20zm-25.8-28l-16.3-17h285.9l24.5 17zm-23.8-25l-14.5-16h274.8l21.8 16zm-22-24l-13-14H2224l19.5 14zM1952 89l-11.6-12h255.1l17.3 12zm257.3-12h252.1l23.1 12h-257.9zm-11.2-8l-15.4-11h243.2l20.6 11zm-26.6-19l-13.7-10h234.9l18.3 10zm-24.9-18l-12.1-8h227.1l16.2 8zm-23.4-16l-10.7-8h219.8l14.3 8zm-13.8 0H1883l-7.1-8h222.8zm-237.3 0h-228.9l-3.6-8h225.3zm-237.7 0H1404V8h226.8zM1396 16h-230.4l3.6-8H1396zm-239.2 0H927.9l7.1-8h225.3zM917 16H690.6l10.7-8h222.8zm-240.2 0H453.4l14.3-8h219.8zm-11.2 8l-12.1 8H422.2l16.2-8zm-23.4 16l-13.7 10H389l18.3-10zm-24.9 18l-15.4 11H353.5l20.6-11zm-26.6 19l-17.3 12H315.5l23.1-12zm13.8 0h255.1L848 89H587.1zm236 20l-13 14h-271L576 97zm-20.4 22l-14.5 16H523.4l21.8-16zm-22 24l-16.3 17h-294l24.5-17zm-23.8 25L756 188H449.1l27.5-20zm-25.8 28L728 218H407.1l30.8-22zm-28 30l-23.1 25H361.2l34.7-25zm11 0h327.1l-11.6 25H708.4zm311.8 33l-13 27H674.8l26-27zm-16.8 35l-14.7 32H638l29.4-32zm-18.4 40l-16.6 36H597.2l33.3-36zm-20.4 44l-18.9 40H551.9l37.8-40zm-22.6 48l-21.6 46H501.2l43.2-46zm8.8 0H1396v46H952.3zm422.1 54v53H923.8l24.8-53zm0 61v62H891.4l28.6-62zm0 70v71H854.4l33.3-71zm8 0h508.3l33.3 71H1404zm1175.9 162h-582.8l-39-83h543.8zm-85.4-91h-540.1l-33.3-71H2428zm-74-79h-503.1l-28.6-62h474.5zm-64.7-70H1885l-24.8-53h446zm393.7-61h-439.8l-43.2-46h418.2zm-76-54H2259l-37.8-40h395.5zm-68-48h-391.8l-33.3-36h375.1zm-61.1-44H2173l-29.4-32h356.7zm-55.3-40h-353l-26-27H2450zm296.7-35h-333.2l-34.7-25h321.6zm-61.2-33h-317.9l-30.8-22h307.6zm-56-30h-303.9l-27.5-20H2632zm-51.6-28h-291l-24.5-17h282.9zm-47.6-25h-279.1l-21.8-16h271.8zm-44-24h-268.1l-19.5-14h261.6zm230.7-22h-254.6l-23.1-12h248.8zm-47.6-20h-245.1l-20.6-11h240zm-44.4-19h-236.2l-18.3-10h231.7zm-41.5-18h-227.9l-16.2-8h223.9zm-38.9-16h-220.1l-14.3-8h216.6zM234.2 8h216.6l-14.3 8H216.3zm-36.6 16h223.9l-16.2 8H177.4zm-38.9 16h231.7l-18.3 10H135.9zm-41.5 18h240l-20.6 11H91.5zM43.9 89l28.9-12h248.8l-23.1 12zm256.6 8h261.6l-19.5 14h-268zm-40.9 22h271.8l-21.8 16h-279zm-44 24h282.9L474 160H183zM168 168h294.7l-27.5 20H131.4zm-51.5 28h307.6l-30.8 22H75.4zM14.2 251l46.2-25H382l-34.7 25zm335.8 8h339.9l-26 27h-353zm-50.3 35h356.7L627 326H255.6zm-55.3 40h375.1l-33.3 36H194.5zm-61.1 44h395.5L541 418H126.5zM50.5 472l64.8-46h418.2l-43.2 46zm443.3 8h446L915 533H444.2zm-57.1 61h474.5l-28.6 62H379.5zM372 611h506.8l-33.3 71h-540zM220.1 773l78-83h543.8l-39 83zm591.6 0l39-83H1396v83z" style="line-height:normal;font-variant-ligatures:normal;font-variant-position:normal;font-variant-caps:normal;font-variant-numeric:normal;font-variant-alternates:normal;font-variant-east-asian:normal;font-feature-settings:normal;font-variation-settings:normal;text-indent:0;text-align:start;text-decoration-line:none;text-decoration-style:solid;text-decoration-color:#000;text-transform:none;text-orientation:mixed;white-space:normal;shape-padding:0;shape-margin:0;inline-size:0;isolation:auto;mix-blend-mode:normal;solid-color:#000;solid-opacity:1" overflow="visible"/><path d="M-.5-.5v9.176L.736 8.5h210.72l-15.663 7H-.5v9h175.18l-17.676 7H-.5v9h136.518l-20.522 9H-.5v9h94.863l-23.365 10H-.5v9h50.494L23.5 88.5h-24v9h3.242L-.5 99.088v9.78L25.305 97.5h256.318l-24.049 13H-.5v9h241.254l-27.283 15H-.5v9h197.16l-30.683 16H-.5v9h149.64l-34.767 19H-.5v9h98.006l-39.23 21H-.5v9h41.992L-.5 248.799V259.5h335.102l-37.559 26H-.5v9h284.96l-42.722 31H-.5v9h229.652l-48.513 35H-.5v9h168.424l-55.383 39H-.5v9H99.932l-63.391 45H-.5v9h24.46L-.5 498.244v11.031L39.46 480.5h442.188l-48.666 52H-.5v9h425.156l-56.275 61H-.5v9h360.445l-65.562 70H-.5v9h286.445l-77.062 82H-.5v9h201.049L107.5 881.219l3.398 3.281h5.92l96-103h585.496L751.24 882.43l4.143 2.07h4.836l48-103H1395.4v103h9v-103h587.282l48 103h4.836l4.14-2.07-47.072-100.93h585.496l96 103h5.92l3.398-3.281-93.048-99.719H2800.5v-9h-209.484l-77.06-82H2800.5v-9h-294.883l-65.562-70H2800.5v-9h-368.88l-56.276-61H2800.5v-9h-433.482l-48.666-52h442.187l39.961 28.775v-11.03l-24.46-17.745h24.46v-9h-37.14l-63.391-45H2800.5v-9h-113.143l-55.38-39H2800.5v-9h-181.04l-48.51-35h229.55v-9h-242.238l-42.723-31H2800.5v-9h-297.543l-37.559-26H2800.5v-10.701l-41.992-22.299h41.992v-9h-58.775l-39.23-21h98.005v-9h-114.873l-34.768-19H2800.5v-9h-166.377l-30.684-16H2800.5v-9h-213.97l-27.284-15H2800.5v-9h-257.973l-24.05-13h256.318l25.805 11.367v-9.78l-3.243-1.587h3.243v-9h-24l-26.494-11h50.494v-9h-71.498l-23.366-10h94.864v-9h-115.895l-20.523-9H2800.5v-9h-157.404l-17.676-7h175.08v-9h-196.393l-15.662-7h210.72l1.235.176V-.5H-.5zm1 1h2798.9v7.023l-.164-.023H2586.1l-.204.957 17.997 8.043H2799.5v7h-176.7l-.185.965 20.29 8.035H2799.5v7h-137.7l-.2.957 22.896 10.043H2799.6v7h-96.3l-.197.959 25.795 11.041h70.702v7h-52l-.192.96L2776.4 89.5h23.2v7h-4.4l-.22.95 4.62 2.26v7.624L2775.006 96.5H2516.5l-.238.94 26.011 14.06H2799.5v7h-242.2l-.241.938 29.212 16.062H2799.5v7h-198.1l-.232.943 32.709 17.057H2799.5v7h-150.6l-.24.94 36.713 20.06H2799.5v7h-99l-.236.941 41.21 22.059h58.026v7h-43l-.234.941 43.234 22.96v9.099h-337.3l40.445 28H2799.5v7h-287.041l45.479 33H2799.5v7h-231.648l51.287 37H2799.5v7h-170.678l58.219 41H2799.5v7h-102.668l66.209 47h36.459v7h-26.541l26.541 19.256v8.568l-38.639-27.824h-444.814l50.537 54H2799.5v7h-426.441l58.123 63H2799.5v7h-361.754l67.438 72H2799.5v7h-287.856l78.94 84H2799.5v7h-202.451L2691 881.182l-2.402 2.318h-5.08l-96-103h-587.502l47.326 101.47-3.06 1.53h-3.964l-48-103H1403.4v103h-7v-103H807.582l-48 103h-3.965l-3.058-1.53 47.326-101.47H212.383l-96 103h-5.08l-2.403-2.318L202.85 780.5H.5v-7h208.816l78.94-84H.5v-7h294.316l67.438-72H.5v-7h368.318l58.123-63H.5v-7h432.916l50.537-54H39.14L.5 507.324v-8.568L27.041 479.5H.5v-7h36.36l66.208-47H.5v-7h112.357l58.221-41H.5v-7h180.46l51.288-37H.5v-7h241.563l45.478-33H.5v-7h296.855l40.446-28H.5v-9.1l43.234-22.959-.234-.941H.5v-7h58.025l41.211-22.059-.236-.941H.5v-7h114.127l36.713-20.06-.24-.94H.5v-7h165.723l32.709-17.057-.233-.943H.5v-7h213.229l29.212-16.063-.242-.937H.5v-7h257.326l26.012-14.06-.238-.94H25.096L.5 107.334v-7.623l4.62-2.262-.22-.949H.5v-7h23.2L52.69 77.46l-.191-.96H.5v-7h70.703l25.793-11.041-.195-.959H.5v-7h115.205l22.897-10.043-.202-.957H.5v-7h156.695l20.29-8.035-.184-.965H.5v-7h195.506l17.998-8.043-.203-.957H.664L.5 7.523V.5zm233.594 7l-.098.043-17.9 8 .205.957h220.33l16.088-9H234.094zm233.476 0l-16.088 9h225.485l.133-.1 11.904-8.9H467.57zm233.563 0l-12.037 9h228.129l.148-.168 7.84-8.832h-224.08zm233.642 0l-7.988 9h230.34l.13-.299 3.807-8.701H934.775zm234.102 0l-4.05 9H1396.5v-9h-227.623zm234.623 0v9h231.674l-.319-.705-3.732-8.295H1403.5zm235.326 0l4.051 9h230.346l-.752-.834-7.348-8.166h-226.297zm235.961 0l7.988 9h228.13l-1.206-.9-10.832-8.1h-224.08zm236.21 0l12.036 9H2348.518l-16.088-9h-221.434zm236.386 0l16.086 9h220.23l.205-.957-17.896-8.043h-218.625zm-2113.074 1h214.576l-12.516 7H218.645l15.664-7zm233.521 0h218.166l-9.363 7H455.316l12.514-7zm233.637 0h221.521l-6.213 7H692.104l9.363-7zm233.758 0h224.31l-3.062 7H929.012l6.213-7zm234.298 0H1395.5v7h-229.127l3.15-7zm234.977 0h225.977l3.15 7H1404.5v-7zm235.873 0h224.305l6.3 7h-227.455l-3.15-7zm236.639 0h221.521l9.363 7h-224.671l-6.213-7zm236.992 0h218.166l12.514 7h-221.317l-9.363-7zm237.213 0h214.576l15.572 7h-217.634l-12.514-7zm-2153.713 15l-.088.035-20.2 8 .184.965h228.016l16.305-8.05-.221-.95H197.504zm240.78 0l-16.305 8.05.22.95H653.65l13.614-9H438.283zm240.866 0l-13.613 9h236.068l.147-.145 8.967-8.855H679.15zm241.145 0l-9.113 9h238.123l.14-.271 4.473-8.729H920.295zm241.297 0l-4.5 9H1396.5v-9h-234.908zm241.908 0v9h239.408l-.361-.723-4.139-8.277H1403.5zm242.691 0l4.5 9h238.116l-.854-.854-8.146-8.146H1646.19zm243.09 0l9.114 9h236.068l-13.613-9H1889.28zm243.557 0l13.611 9h231.352l.22-.95-16.304-8.05h-228.88zm245.662 0l-.22.95 16.304 8.05H2622.6l.183-.965-20.287-8.035H2378.5zm-2180.805 1h221.662l-14.173 7H180.02l17.675-7zm240.823 0h225.418l-10.586 7H424.344l14.174-7zm240.933 0h228.832l-7.088 7h-232.33l10.586-7zm241.254 0h231.576l-3.588 7H913.617l7.088-7zm241.504 0H1395.5v7h-236.791l3.5-7zm242.291 0h233.291l3.5 7H1404.5v-7zm243.309 0h231.584l7 7h-235.084l-3.5-7zm243.908 0h228.832l10.586 7h-232.33l-7.088-7zm244.447 0h225.318l14.174 7H2146.75l-10.586-7zm244.479 0h221.662l17.676 7h-225.165l-14.173-7zm-2222.047 15l-.096.043-22.8 10 .2.957H372.23l18.412-10.06-.24-.94H158.595zm248.576 0L388.76 49.56l.24.94h239.662l15.07-11H407.172zm248.666 0l-15.07 11H885.02l10.01-11H655.838zm248.74 0l-10.01 11h246.455l.133-.295 4.817-10.705H904.578zm249.2 0l-.133.295-4.819 10.705H1396.5v-11h-242.723zm249.722 0v11h247.674l-.319-.705-4.632-10.295H1403.5zm250.426 0l.318.705 4.633 10.295h246.453l-10.01-11h-241.394zm251.043 0l10.01 11h244.253l-15.07-11H1904.97zm251.299 0l15.07 11H2411l.24-.94-18.412-10.06h-236.56zm253.332 0l-.24.94 18.411 10.06H2664.1l.2-.957-22.896-10.043H2409.6zm-2250.797 1H388.44l-16.468 9h-233.69l20.52-9zm248.625 0h233.238l-12.328 9H390.959l16.469-9zm248.734 0h236.606l-8.19 9H643.834l12.328-9zm248.86 0h239.406l-4.051 9H896.832l8.19-9zm249.402 0H1395.5v9h-245.127l4.05-9zm250.076 0h241.076l4.051 9H1404.5v-9zm250.973 0h239.406l8.19 9h-243.546l-4.05-9zm251.757 0h236.608l12.328 9h-240.744l-8.192-9zm252.104 0h233.238l16.469 9h-237.377l-12.33-9zm252.225 0h229.636l20.522 9h-233.69l-16.468-9zm-2294.461 17l-.094.041-25.701 11 .197.959h245.225l20.71-11.059-.236-.941H117.098zm256.877 0l-20.711 11.059.236.941h248.56l16.8-12H373.974zm256.964 0l-16.798 12h253.076l11.236-12H630.94zm257.145 0l-.148.158L876.848 69.5h255.37l5.565-12H888.084zm257.396 0l-5.562 12H1396.5v-12h-251.02zm258.02 0v12h256.582l-5.563-12H1403.5zm258.816 0l5.565 12H1923.254l-11.236-12h-249.702zm259.23 0l.79.842 10.447 11.158h253.076l-16.798-12h-247.514zm259.595 0l16.798 12H2446.5l.236-.941-20.71-11.059H2181.14zm261.66 0l-.236.941 20.71 11.059H2708.5l.197-.959-25.795-11.041h-240.101zm-2325.5 1h237.9l-18.726 10H93.937l23.364-10zm256.924 0H615.74l-14 10H355.5l18.725-10zm257.035 0h244.886l-9.363 10H617.26l14-10zm257.256 0h247.7l-4.636 10H879.154l9.362-10zm257.603 0H1395.5v10h-254.016l4.635-10zm258.381 0h249.38l4.636 10H1404.5v-10zm259.383 0h247.701l9.361 10H1668.52l-4.637-10zm259.97 0h244.887l14 10h-249.523l-9.364-10zm260.407 0h241.515l18.725 10h-246.24l-14-10zm260.539 0h237.898l23.365 10h-242.537l-18.726-10zM72.7 76.5L43.71 88.54l.191.96h254.723l23.207-12.057-.23-.943H72.7zm265.778 0l-23.21 12.057.231.943h258.057l18.742-13h-253.82zm265.865 0l-.127.088L585.494 89.5h262.719l12.566-13H604.344zm266.045 0l-12.569 13h264.793l6.284-13H870.389zm266.297 0l-6.284 13H1396.5v-13h-259.814zm266.814 0v13h266.197l-6.283-13H1403.5zm267.603 0l6.284 13h264.892l-12.566-13h-258.61zm268.118 0l12.566 13H2214.398l-18.742-13h-256.435zm268.48 0l1.315.91 17.427 12.09H2484.5l.23-.943-23.209-12.057h-253.82zm270.7 0l-.231.943 23.207 12.057H2756.1l.191-.96-28.992-12.04H2478.4zm-2405.5 1h246.652l-21.176 11H46.407l26.493-11zm265.822 0h250.379l-15.858 11H317.547l21.176-11zm265.933 0H858.42l-10.633 11h-259.08l15.95-11zm266.157 0h256.492l-5.319 11H860.18l10.633-11zm266.501 0H1395.5v11h-263.504l5.318-11zm267.186 0h258.287l5.316 11H1404.5v-11zm268.195 0h256.592l10.633 11h-261.906l-5.319-11zm268.885 0h253.764l15.86 11h-258.991l-10.633-11zm269.318 0h250.38l21.175 11h-255.697l-15.858-11zm269.55 0H2727.1l26.494 11h-251.971l-21.176-11zm-2180.075 19l-.111.06-25.9 14 .238.94h268.162l20.892-15H300.373zm275.467 0l-20.895 15H827.72l13.927-15H575.84zm275.441 0l-13.927 15h275.066l6.963-15H851.28zm275.8 0l-6.964 15H1396.5v-15h-269.42zm276.419 0v15h276.383l-6.963-15H1403.5zm277.117 0l6.963 15h275.066l-13.927-15h-268.102zm277.637 0l13.928 15h272.873l-20.895-15h-265.906zm277.992 0l20.893 15H2525.4l.237-.94-26.112-14.06h-263.279zm-1935.62 1h259.92l-18.107 13H276.576l24.05-13zm275.534 0h263.194l-12.073 13H558.053l18.107-13zm275.559 0h266.097l-6.035 13H839.646l12.073-13zm276 0H1395.5v13h-273.816l6.035-13zm276.781 0h267.781l6.035 13H1404.5v-13zm277.684 0h266.097l12.072 13H1688.22l-6.035-13zm278.36 0h263.296l18.107 13h-269.33l-12.072-13zm278.81 0h259.92l24.144 13h-265.957l-18.107-13zm-1979.883 21l-.112.063-29 16 .24.937h279.165l23.162-17H259.47zm285.566 0l-23.164 17h283.95l15.406-17H545.037zm285.742 0l-15.406 17h286.049l7.756-17H830.78zm286.1 0l-7.756 17H1396.5v-17h-279.621zm286.621 0v17h287.377l-7.756-17H1403.5zm287.322 0l7.756 17h285.949l-15.406-17h-278.299zm287.95 0l15.406 17h283.847l-23.162-17h-276.091zm288.203 0l23.162 17H2569.4l.24-.938-29.212-16.062h-273.453zm-2007.246 1h270.144l-20.437 15H232.54l27.188-15zm285.634 0h273.61l-13.594 15H524.926l20.437-15zm285.858 0h276.402l-6.844 15H817.63l13.592-15zm286.3 0H1395.5v15h-284.822l6.843-15zm286.979 0h277.978l6.844 15H1404.5v-15zm287.877 0h276.3l13.595 15h-283.05l-6.845-15zm288.65 0h273.51l20.438 15H1994.62l-13.594-15zm288.998 0h270.147l27.281 15h-276.99l-20.438-15zm-2054.548 23l-.108.057-32.6 17 .231.943h291.156l25.942-18H215.477zm296.666 0l-25.94 18h295.81l17.258-18H512.143zm296.644 0l-17.26 18h297.987l8.683-18h-289.41zm297.1 0l-8.684 18H1396.5v-18h-290.613zm297.613 0v18h299.297l-8.684-18H1403.5zm298.303 0l8.683 18h297.987l-17.26-18h-289.41zm298.925 0l17.258 18H2313.9l-25.942-18h-287.228zm299.174 0l25.942 18H2617l.23-.943-32.707-17.057h-284.62zm-2084.18 1h281.18l-23.058 16H185.039l30.684-16zm296.735 0h284.47l-15.341 16H489.398l23.059-16zm296.756 0h287.39l-7.716 16H793.87l15.342-16zm297.3 0H1395.5v16h-296.703l7.717-16zm297.987 0h288.986l7.717 16H1404.5v-16zm298.897 0h287.39l15.342 16h-295.016l-7.716-16zm299.675 0h284.57l23.061 16h-292.29l-15.34-16zm300.026 0h281.18l30.683 16h-288.805l-23.058-16zm-2135.225 24l-.113.06-36.6 20 .24.94h303.963l28.875-21H167.873zm308.565 0l-28.875 21H756.22l19.215-21H476.437zm308.642 0l-19.215 21h310.858l9.554-21H785.08zm308.898 0l-9.554 21H1396.5v-21h-302.522zm309.522 0v21h312.076l-9.554-21H1403.5zm310.219 0l9.66 21h310.756l-19.215-21h-301.201zm310.845 0l19.215 21h308.758l-28.875-21h-299.097zm311.098 0l28.875 21H2668.6l.24-.94-36.713-20.06h-296.465zm-2167.533 1h293.033l-26.125 19H133.36l34.77-19zm308.633 0h296.402l-17.385 19H450.64l26.123-19zm308.758 0h299.203l-8.645 19H768.137l17.383-19zm309.101 0H1395.5v19h-309.523l8.644-19zm309.879 0h300.879l8.644 19H1404.5v-19zm310.781 0h299.2l17.382 19H1724.02l-8.739-19zm311.555 0h296.502l26.123 19h-305.24l-17.385-19zm311.902 0h293.135l34.768 19h-301.778l-26.125-19zm-2222.363 27l-.111.059-41.1 22 .236.941h318.06l32.2-23H116.375zm321.365 0l-32.2 23h322.677l21.431-23H437.74zm321.442 0l-21.432 23h324.867l10.77-23H759.182zm321.9 0l-.135.287-10.632 22.713H1396.5v-23h-315.418zm322.418 0v23h326.186l-10.768-23H1403.5zm323.117 0l.33.71 10.334 22.29h324.867l-21.431-23h-314.1zm323.735 0l21.431 23H2394.46l-32.2-23h-311.908zm323.988 0l32.2 23h318.06l.236-.941-41.211-22.059H2374.34zm-2257.713 1h305.912l-29.398 21H77.395l39.232-21zm321.434 0H747.35l-19.567 21H408.66l29.4-21zm321.556 0h312.196l-9.83 21H740.05l19.566-21zm322.102 0H1395.5v21h-323.613l9.832-21zm322.781 0h313.781l9.832 21H1404.5v-21zm323.684 0h312.1l19.566 21h-321.93l-9.736-21zm324.466 0h309.29l29.4 21h-319.121l-19.569-21zm324.81 0h305.915l39.23 21H2406.86l-29.398-21zm-2317.187 29l-46.31 25.06.236.94h333.262l36.088-26H60.273zm335.465 0l-36.088 26h337.97l24.023-26H395.738zm335.543 0l-.148.16-23.875 25.84h340.06l12.065-26H731.28zm335.9 0l-12.064 26H1396.5v-26h-329.318zm336.319 0v26h341.482l-12.062-26H1403.5zm337.117 0l12.065 26h340.06l-24.023-26h-328.102zm337.74 0l.776.84 23.248 25.16h337.969l-36.088-26h-325.905zm337.995 0l36.088 26h333.36l.237-.94-46.41-25.06h-323.275zm-2355.825 1H380.45l-33.31 24H16.174l44.353-24zm335.534 0h323.296l-22.175 24H362.75l33.31-24zm335.658 0h326.097l-11.134 24H709.543l22.176-24zm336.1 0H1395.5v24h-338.816l11.134-24zm336.681 0h327.781l11.135 24H1404.5v-24zm337.684 0h326.097l22.176 24h-337.139l-11.134-24zm338.459 0h323.296l33.311 24h-334.432l-22.175-24zm338.806 0h319.924l44.45 24h-331.061l-33.313-24zm-2069.605 32l-.127.088-40.42 27.912h354.816l26.963-28H349.844zm350.744 0l-26.963 28h356.988l13.483-28H700.588zm351.197 0l-13.48 28H1396.5v-28h-344.715zm351.715 0v28h358.195l-13.48-28H1403.5zm352.404 0l13.483 28H2126.275l-26.963-28h-343.408zm353.02 0l26.963 28h354.816l-1.318-.912-39.229-27.088h-341.232zm-1758.768 1h338.567l-25.035 26H312.503l37.652-26zm350.856 0h341.492l-12.518 26h-354.01l25.036-26zm351.402 0H1395.5v26h-355.603l12.517-26zm352.086 0h343.086l12.517 26H1404.5v-26zm352.996 0h341.39l25.038 26h-353.91l-12.518-26zm353.781 0h338.567l37.652 26h-351.184l-25.035-26zm-1811.74 34l-.13.096L254.06 326.5h373.158l30.32-33H299.537zm367.643 0l-30.319 33h375.26l15.158-33H667.18zm367.9 0l-15.16 33h376.58v-33h-361.42zm368.42 0v33h376.58l-15.16-33H1403.5zm369.22 0l15.159 33h375.36l-30.32-33h-360.198zm369.74 0l30.321 33h373.159l-1.247-.904-44.23-32.096H2142.46zm-1842.599 1h355.4l-28.48 31h-369.64l42.72-31zm367.758 0h358.1l-14.24 31h-372.34l28.48-31zm368.102 0H1395.5v31h-374.02l14.24-31zm368.779 0h359.78l14.24 31H1404.5v-31zm369.781 0h358.2l28.482 31H1788.52l-14.24-31zm370.457 0h355.4l42.721 31h-369.64l-28.48-31zm-1900.5 39l-.13.094-51.155 36.906h393.465l34.227-37H244.238zm386.043 0l-34.224 37H991.82l17.06-37H630.282zm386.3 0l-17.061 37h396.98v-37h-379.92zm386.919 0v37h396.98l-17.06-37H1403.5zm387.62 0l17.06 37h395.763l-34.224-37h-378.6zm388.136 0l34.225 37h393.57l-1.258-.906-50.13-36.094h-376.407zm-1934.693 1h373.792l-32.375 35H196.05l48.513-35zm386.156 0h376.601l-16.14 35H598.344l32.375-35zm386.502 0H1395.5v35h-394.42l16.14-35zm387.279 0h378.281l16.139 35H1404.5v-35zm388.18 0h376.601l32.375 35h-392.838l-16.138-35zm388.865 0h373.793l48.611 35h-390.031l-32.373-35zm-1998.402 43l-.131.092-58.09 40.908h416.293l38.746-41H183.143zm406.341 0l-38.744 41h418.377l19.371-41H589.484zm406.7 0l-19.373 41H1396.5v-41H996.184zm407.316 0v41h419.59l-19.373-41H1403.5zm408.012 0l19.37 41h418.377l-38.743-41h-399.004zm408.527 0l38.746 41h416.293l-1.29-.908-56.93-40.092h-396.819zm-2036.582 1h394.184l-36.856 39H128.076l55.381-39zm406.459 0h396.996l-18.43 39H553.061l36.855-39zm406.9 0H1395.5v39H978.389l18.427-39zm407.684 0h398.584l18.428 39H1404.5v-39zm408.588 0h396.996l36.856 39h-415.422l-18.43-39zm409.271 0h394.182l55.383 39h-412.71l-36.855-39zm-2107.218 47l-66.21 47H490.517l44.14-47H115.141zm429.043 0l-44.14 47h443.774l22.069-47H544.184zm429.398 0l-.135.287-21.933 46.713H1396.5v-47H973.582zm429.918 0v47h444.986l-22.068-47H1403.5zm430.613 0l.334.713 21.735 46.287h443.674l-44.14-47h-421.603zm431.23 0l44.141 47h441.584l-1.279-.908-64.93-46.092h-419.515zm-2149.884 1h416.885l-42.26 45H52.068l63.391-45zm429.158 0h419.696l-21.131 45H502.355l42.262-45zm429.602 0H1395.5v45H953.086l21.133-45zm430.281 0h421.283l21.131 45H1404.5v-45zm431.188 0h419.595l42.262 45h-440.727l-21.13-45zm431.968 0h416.885l63.39 45h-438.015l-42.26-45zm-1774.072 53l-.148.158-50.39 53.842h472.272l25.268-54H493.584zm454.697 0l-25.267 54H1396.5v-54H948.281zm455.219 0v54h473.486l-25.267-54H1403.5zm455.914 0l25.268 54h472.271l-.787-.842-49.75-53.158h-447.002zm-1365.396 1h444.998l-24.334 52h-469.33l48.666-52zm454.9 0H1395.5v52H924.584l24.334-52zm455.582 0h446.582l24.334 52H1404.5v-52zm456.484 0h444.998l48.666 52h-469.33l-24.334-52zm-1424.504 60l-.148.16-57.973 62.84h504.56l29.061-63h-475.5zm483.2 0l-29.06 63h505.88v-63H919.68zm483.82 0v63h505.88l-29.06-63H1403.5zm484.52 0l29.06 63h504.56l-.773-.84-57.348-62.16h-475.5zm-1451.1 1h473.5l-28.14 61H380.642l56.277-61zm483.4 0h475.18v61H892.18l28.14-61zm484.18 0h475.182l28.138 61H1404.5v-61zm485.08 0h473.5l56.277 61h-501.636l-28.14-61zm-1517.797 69l-.148.158-67.29 71.842h541.473l33.768-72H371.783zm515.6 0l-33.77 72H1396.5v-72H887.383zm516.117 0v72h542.887l-33.77-72H1403.5zm516.813 0l33.769 72h541.572l-.789-.842-66.648-71.158h-507.905zm-1548.096 1h505.797l-32.832 70H306.654l65.563-70zm515.8 0H1395.5v70H855.187l32.83-70zm516.483 0h507.482l32.83 70H1404.5v-70zm517.387 0h505.896l65.563 70h-538.63l-32.83-70zm-1624.004 78l-78.94 84h584.274l39.47-84H297.884zm552.5 0l-39.47 84H1396.5v-84H850.383zm553.117 0v84h585.588l-39.47-84H1403.5zm553.813 0l39.47 84h584.274l-.793-.842-78.147-83.158h-544.805zm-1658.997 1h542.795l-38.529 82H221.256l77.06-82zm552.702 0H1395.5v82H812.488l38.53-82zm553.482 0h544.482l38.53 82H1404.5v-82zm554.389 0h542.795l77.06 82h-581.326l-38.53-82z" style="line-height:normal;font-variant-ligatures:normal;font-variant-position:normal;font-variant-caps:normal;font-variant-numeric:normal;font-variant-alternates:normal;font-variant-east-asian:normal;font-feature-settings:normal;font-variation-settings:normal;text-indent:0;text-align:start;text-decoration-line:none;text-decoration-style:solid;text-decoration-color:#000;text-transform:none;text-orientation:mixed;white-space:normal;shape-padding:0;shape-margin:0;inline-size:0;isolation:auto;mix-blend-mode:normal;solid-color:#000;solid-opacity:1" overflow="visible"/></g></svg>